<svg width="25" height="24" viewBox="0 0 25 24" fill="none" xmlns="http://www.w3.org/2000/svg">
<g clip-path="url(#clip0_1316_11944)">
<path d="M1.5769 20.998C1.5769 21.2935 1.6351 21.586 1.74818 21.859C1.86125 22.132 2.02698 22.38 2.23591 22.589C2.44485 22.7979 2.69288 22.9636 2.96587 23.0767C3.23885 23.1898 3.53143 23.248 3.8269 23.248C4.12238 23.248 4.41496 23.1898 4.68794 23.0767C4.96092 22.9636 5.20896 22.7979 5.41789 22.589C5.62683 22.38 5.79256 22.132 5.90563 21.859C6.01871 21.586 6.0769 21.2935 6.0769 20.998C6.0769 20.7025 6.01871 20.4099 5.90563 20.1369C5.79256 19.864 5.62683 19.6159 5.41789 19.407C5.20896 19.1981 4.96092 19.0323 4.68794 18.9193C4.41496 18.8062 4.12238 18.748 3.8269 18.748C3.53143 18.748 3.23885 18.8062 2.96587 18.9193C2.69288 19.0323 2.44485 19.1981 2.23591 19.407C2.02698 19.6159 1.86125 19.864 1.74818 20.1369C1.6351 20.4099 1.5769 20.7025 1.5769 20.998Z" stroke="black" stroke-width="1.5" stroke-linecap="round" stroke-linejoin="round"/>
<path d="M6.8269 8.99799C6.8269 9.29346 6.8851 9.58604 6.99818 9.85902C7.11125 10.132 7.27698 10.38 7.48591 10.589C7.69485 10.7979 7.94288 10.9636 8.21587 11.0767C8.48885 11.1898 8.78143 11.248 9.0769 11.248C9.37238 11.248 9.66496 11.1898 9.93794 11.0767C10.2109 10.9636 10.459 10.7979 10.6679 10.589C10.8768 10.38 11.0426 10.132 11.1556 9.85902C11.2687 9.58604 11.3269 9.29346 11.3269 8.99799C11.3269 8.70251 11.2687 8.40993 11.1556 8.13695C11.0426 7.86397 10.8768 7.61593 10.6679 7.407C10.459 7.19806 10.2109 7.03233 9.93794 6.91926C9.66496 6.80618 9.37238 6.74799 9.0769 6.74799C8.78143 6.74799 8.48885 6.80618 8.21587 6.91926C7.94288 7.03233 7.69485 7.19806 7.48591 7.407C7.27698 7.61593 7.11125 7.86397 6.99818 8.13695C6.8851 8.40993 6.8269 8.70251 6.8269 8.99799Z" stroke="black" stroke-width="1.5" stroke-linecap="round" stroke-linejoin="round"/>
<path d="M14.3269 14.998C14.3269 15.5947 14.564 16.167 14.9859 16.589C15.4079 17.0109 15.9802 17.248 16.5769 17.248C17.1736 17.248 17.7459 17.0109 18.1679 16.589C18.5899 16.167 18.8269 15.5947 18.8269 14.998C18.8269 14.4012 18.5899 13.829 18.1679 13.407C17.7459 12.985 17.1736 12.748 16.5769 12.748C15.9802 12.748 15.4079 12.985 14.9859 13.407C14.564 13.829 14.3269 14.4012 14.3269 14.998Z" stroke="black" stroke-width="1.5" stroke-linecap="round" stroke-linejoin="round"/>
<path d="M19.5769 2.99799C19.5769 3.59472 19.814 4.16702 20.2359 4.58898C20.6579 5.01093 21.2302 5.24799 21.8269 5.24799C22.4236 5.24799 22.9959 5.01093 23.4179 4.58898C23.8399 4.16702 24.0769 3.59472 24.0769 2.99799C24.0769 2.40125 23.8399 1.82895 23.4179 1.407C22.9959 0.985039 22.4236 0.747986 21.8269 0.747986C21.2302 0.747986 20.6579 0.985039 20.2359 1.407C19.814 1.82895 19.5769 2.40125 19.5769 2.99799Z" stroke="black" stroke-width="1.5" stroke-linecap="round" stroke-linejoin="round"/>
<path d="M4.72888 18.936L8.17488 11.06" stroke="black" stroke-width="1.5" stroke-linecap="round" stroke-linejoin="round"/>
<path d="M10.8339 10.404L14.8199 13.593" stroke="black" stroke-width="1.5" stroke-linecap="round" stroke-linejoin="round"/>
<path d="M20.9249 5.06L17.4789 12.936" stroke="black" stroke-width="1.5" stroke-linecap="round" stroke-linejoin="round"/>
</g>
<defs>
<clipPath id="clip0_1316_11944">
<rect width="24" height="24" fill="white" transform="translate(0.826904)"/>
</clipPath>
</defs>
</svg>
