<svg width="25" height="24" viewBox="0 0 25 24" fill="none" xmlns="http://www.w3.org/2000/svg">
<path d="M5.85717 17.9993L7.78507 16.9509M18.2995 17.9993L16.3716 16.9509" stroke="black" stroke-width="1.5" stroke-linecap="round" stroke-linejoin="round"/>
<path d="M12.0779 7.09937V9.51857" stroke="black" stroke-width="1.5" stroke-linecap="round" stroke-linejoin="round"/>
<path d="M10.0818 3.83931L12.0777 2.75391L14.0736 3.83931L14.0727 3.84075V6.01414L12.0779 7.09955L10.083 6.01414V3.84125L10.0818 3.83931Z" stroke="black" stroke-width="1.5" stroke-linecap="round" stroke-linejoin="round"/>
<path d="M1.9646 17.9858L3.96052 16.9004L5.95644 17.9858L5.95553 17.9872V20.1606L3.96067 21.246L1.96581 20.1606V17.9877L1.9646 17.9858Z" stroke="black" stroke-width="1.5" stroke-linecap="round" stroke-linejoin="round"/>
<path d="M18.197 17.9858L20.1929 16.9004L22.1889 17.9858L22.188 17.9872V20.1606L20.1931 21.246L18.1982 20.1606V17.9877L18.197 17.9858Z" stroke="black" stroke-width="1.5" stroke-linecap="round" stroke-linejoin="round"/>
<path d="M7.63647 11.9335L12.0773 9.51855L16.518 11.9335" stroke="black" stroke-width="1.5" stroke-linecap="round" stroke-linejoin="round"/>
<path d="M12.0779 19.1873L7.63945 16.7723V11.9335L12.0779 14.3485V19.1873Z" stroke="black" stroke-width="1.5" stroke-linejoin="round"/>
<path d="M12.0779 19.1873L16.5163 16.7723V11.9335L12.0779 14.3485V19.1873Z" stroke="black" stroke-width="1.5" stroke-linejoin="round"/>
</svg>
