<svg width="24" height="25" viewBox="0 0 24 25" fill="none" xmlns="http://www.w3.org/2000/svg">
<path d="M19.75 3.74951H21.75C21.75 3.74951 23.25 3.74951 23.25 5.24951V20.2495C23.25 20.2495 23.25 21.7495 21.75 21.7495H19.75C19.75 21.7495 18.25 21.7495 18.25 20.2495V5.24951C18.25 5.24951 18.25 3.74951 19.75 3.74951Z" stroke="black" stroke-width="1.5" stroke-linecap="round" stroke-linejoin="round"/>
<path d="M11 9.74951H13C13 9.74951 14.5 9.74951 14.5 11.2495V20.2495C14.5 20.2495 14.5 21.7495 13 21.7495H11C11 21.7495 9.5 21.7495 9.5 20.2495V11.2495C9.5 11.2495 9.5 9.74951 11 9.74951Z" stroke="black" stroke-width="1.5" stroke-linecap="round" stroke-linejoin="round"/>
<path d="M2.25 15.7495H4.25C4.25 15.7495 5.75 15.7495 5.75 17.2495V20.2495C5.75 20.2495 5.75 21.7495 4.25 21.7495H2.25C2.25 21.7495 0.75 21.7495 0.75 20.2495V17.2495C0.75 17.2495 0.75 15.7495 2.25 15.7495Z" stroke="black" stroke-width="1.5" stroke-linecap="round" stroke-linejoin="round"/>
</svg>
